<svg width="604" height="316" viewBox="0 0 604 316" fill="none" xmlns="http://www.w3.org/2000/svg">
<path d="M158 310.5C242.223 310.5 310.5 242.223 310.5 158C310.5 73.7766 242.223 5.5 158 5.5C73.7766 5.5 5.5 73.7766 5.5 158C5.5 242.223 73.7766 310.5 158 310.5Z" stroke="#D90000" stroke-width="11"/>
<path d="M411 68H179V244H411V68Z" fill="#F5F6FA"/>
<g filter="url(#filter0_d_4_49)">
<path d="M136.812 113.5L162 174.812H163.062L188.188 113.5H211.375V204H193.125V144.688H192.375L168.75 203.562H156.188L132.625 144.562H131.875V204H113.688V113.5H136.812ZM219.065 204L250.315 113.5H274.44L305.753 204H285.565L262.753 133.938H262.003L239.128 204H219.065ZM286.44 168.438V183.125H238.128V168.438H286.44ZM313.443 113.5H332.193V188.5H371.13V204H313.443V113.5ZM380.758 113.5H399.508V188.5H438.445V204H380.758V113.5ZM458.448 205.125C456.573 205.125 454.823 204.646 453.198 203.688C451.573 202.688 450.302 201.396 449.385 199.812C448.468 198.188 448.01 196.438 448.01 194.562C448.01 192.729 448.468 191.021 449.385 189.438C450.302 187.812 451.573 186.542 453.198 185.625C454.823 184.708 456.573 184.25 458.448 184.25C460.323 184.25 462.052 184.708 463.635 185.625C465.26 186.542 466.552 187.812 467.51 189.438C468.468 191.021 468.948 192.729 468.948 194.562C468.948 196.438 468.468 198.188 467.51 199.812C466.552 201.396 465.26 202.688 463.635 203.688C462.052 204.646 460.323 205.125 458.448 205.125ZM478.755 147.438H490.473V170.875H515.005V147.438H526.723V204H515.005V180.523H490.473V204H478.755V147.438ZM534.733 147.438H557.233C561.269 147.438 564.694 148.049 567.506 149.273C570.319 150.471 572.428 152.164 573.834 154.352C575.267 156.513 575.983 159.052 575.983 161.969C575.983 164.104 575.54 166.005 574.655 167.672C573.795 169.339 572.597 170.719 571.061 171.812C569.551 172.88 567.793 173.635 565.788 174.078V174.625C567.949 174.729 569.98 175.354 571.881 176.5C573.782 177.646 575.306 179.247 576.452 181.305C577.597 183.336 578.17 185.706 578.17 188.414C578.17 191.435 577.428 194.117 575.944 196.461C574.459 198.805 572.246 200.654 569.303 202.008C566.386 203.336 562.858 204 558.717 204H534.733V147.438ZM556.334 194.352C558.548 194.352 560.371 194.065 561.803 193.492C563.261 192.893 564.329 192.073 565.006 191.031C565.683 189.964 566.022 188.701 566.022 187.242C566.022 185.68 565.644 184.273 564.889 183.023C564.134 181.773 563.04 180.823 561.608 180.172C560.202 179.495 558.548 179.156 556.647 179.156H546.452V194.352H556.334ZM555.475 171.148C557.116 171.148 558.587 170.849 559.889 170.25C561.217 169.651 562.246 168.805 562.975 167.711C563.73 166.617 564.108 165.328 564.108 163.844C564.108 162.438 563.782 161.227 563.131 160.211C562.48 159.169 561.517 158.375 560.241 157.828C558.991 157.255 557.48 156.969 555.709 156.969H546.452V171.148H555.475Z" fill="black"/>
</g>
<g filter="url(#filter1_d_4_49)">
<path d="M218.625 203L249.875 112.5H274L305.312 203H285.125L262.312 132.938H261.562L238.688 203H218.625ZM286 167.438V182.125H237.688V167.438H286ZM331.753 203H313.003V112.5H331.753V203Z" fill="#D90000"/>
</g>
<defs>
<filter id="filter0_d_4_49" x="88.688" y="92.5" width="514.482" height="141.625" filterUnits="userSpaceOnUse" color-interpolation-filters="sRGB">
<feFlood flood-opacity="0" result="BackgroundImageFix"/>
<feColorMatrix in="SourceAlpha" type="matrix" values="0 0 0 0 0 0 0 0 0 0 0 0 0 0 0 0 0 0 127 0" result="hardAlpha"/>
<feOffset dy="4"/>
<feGaussianBlur stdDeviation="12.5"/>
<feComposite in2="hardAlpha" operator="out"/>
<feColorMatrix type="matrix" values="0 0 0 0 0 0 0 0 0 0 0 0 0 0 0 0 0 0 0.25 0"/>
<feBlend mode="normal" in2="BackgroundImageFix" result="effect1_dropShadow_4_49"/>
<feBlend mode="normal" in="SourceGraphic" in2="effect1_dropShadow_4_49" result="shape"/>
</filter>
<filter id="filter1_d_4_49" x="193.625" y="91.5" width="163.128" height="140.5" filterUnits="userSpaceOnUse" color-interpolation-filters="sRGB">
<feFlood flood-opacity="0" result="BackgroundImageFix"/>
<feColorMatrix in="SourceAlpha" type="matrix" values="0 0 0 0 0 0 0 0 0 0 0 0 0 0 0 0 0 0 127 0" result="hardAlpha"/>
<feOffset dy="4"/>
<feGaussianBlur stdDeviation="12.5"/>
<feComposite in2="hardAlpha" operator="out"/>
<feColorMatrix type="matrix" values="0 0 0 0 0 0 0 0 0 0 0 0 0 0 0 0 0 0 0.25 0"/>
<feBlend mode="normal" in2="BackgroundImageFix" result="effect1_dropShadow_4_49"/>
<feBlend mode="normal" in="SourceGraphic" in2="effect1_dropShadow_4_49" result="shape"/>
</filter>
</defs>
</svg>
