<svg width="471" height="127" viewBox="0 0 471 127" fill="none" xmlns="http://www.w3.org/2000/svg">
<path d="M-3.15905e-06 117L3.78 116.1C8.22 114.78 11.4 113.22 13.32 111.42C15.24 109.5 17.04 106.02 18.72 100.98L44.28 27.18C45.48 23.34 46.08 20.7 46.08 19.26C46.08 17.22 45.48 15.66 44.28 14.58C43.2 13.38 41.4 12.54 38.88 12.06L35.1 11.16L37.08 5.58001H68.4L101.34 99.9C103.14 105.06 105 108.9 106.92 111.42C108.96 113.94 112.02 116.76 116.1 119.88L113.94 122.58H77.04L75.24 117L79.2 116.1C81.72 115.5 83.52 114.66 84.6 113.58C85.8 112.38 86.4 110.76 86.4 108.72C86.4 107.52 86.1 106.14 85.5 104.58C85.02 102.9 84.66 101.7 84.42 100.98L76.68 78.12H39.06L35.1 90C32.7 97.44 31.5 103.14 31.5 107.1C31.5 111.06 32.28 114.36 33.84 117L35.1 119.88L32.04 122.58H2.16L-3.15905e-06 117ZM42.66 67.86H73.44L57.78 22.14L42.66 67.86ZM120.541 117L124.501 116.1C128.701 114.78 131.461 113.22 132.781 111.42C134.101 109.5 134.761 106.02 134.761 100.98V27.18C134.761 22.14 134.041 18.66 132.601 16.74C131.281 14.7 128.581 13.14 124.501 12.06L120.541 11.16L122.521 5.58001H158.341L160.501 8.10001L158.341 11.16C155.581 14.64 153.661 18.42 152.581 22.5C151.501 26.46 150.961 31.68 150.961 38.16V102.06C150.961 106.74 151.621 110.04 152.941 111.96C154.261 113.76 156.901 115.26 160.861 116.46L164.101 117.36L162.661 122.58H122.521L120.541 117Z" fill="#F2641D"/>
<path d="M199.081 119.88L201.061 117C203.821 113.4 205.741 109.68 206.821 105.84C207.901 101.88 208.441 96.54 208.441 89.82V27.18C208.441 22.02 208.081 18.66 207.361 17.1C206.641 15.42 205.081 14.58 202.681 14.58H195.301C191.341 14.58 188.281 15 186.121 15.84C184.081 16.68 182.401 18.12 181.081 20.16C179.881 22.2 178.741 25.2 177.661 29.16L176.761 33.12L171.181 31.14V2.16001L173.881 7.39098e-06L176.761 2.16001C179.641 4.44001 185.761 5.58001 195.121 5.58001H237.781C247.261 5.58001 253.381 4.44001 256.141 2.16001L259.021 7.39098e-06L261.721 2.16001V31.14L256.141 33.12L255.241 29.16C253.681 23.28 251.761 19.38 249.481 17.46C247.201 15.54 243.241 14.58 237.601 14.58H230.041C227.761 14.58 226.201 15.42 225.361 17.1C224.641 18.78 224.281 22.14 224.281 27.18V100.98C224.281 106.02 224.941 109.5 226.261 111.42C227.701 113.22 230.581 114.78 234.901 116.1L238.861 117L236.881 122.58H201.061L199.081 119.88ZM320.953 124.92C309.193 124.92 299.293 122.28 291.253 117C283.213 111.6 277.153 104.34 273.073 95.22C269.113 86.1 267.133 75.78 267.133 64.26C267.133 52.74 269.113 42.36 273.073 33.12C277.153 23.88 283.213 16.62 291.253 11.34C299.293 5.94001 309.193 3.24001 320.953 3.24001C332.713 3.24001 342.613 5.94001 350.653 11.34C358.813 16.62 364.933 23.88 369.013 33.12C373.093 42.36 375.133 52.74 375.133 64.26C375.133 75.78 373.093 86.1 369.013 95.22C364.933 104.34 358.813 111.6 350.653 117C342.613 122.28 332.713 124.92 320.953 124.92ZM320.233 115.38C327.913 115.38 334.513 113.16 340.033 108.72C345.673 104.16 349.993 98.04 352.993 90.36C355.993 82.68 357.493 74.16 357.493 64.8C357.493 56.88 356.353 48.96 354.073 41.04C351.793 33 348.013 26.22 342.733 20.7C337.453 15.18 330.553 12.42 322.033 12.42C314.353 12.42 307.693 14.82 302.053 19.62C296.413 24.3 292.093 30.72 289.093 38.88C286.213 46.92 284.773 55.86 284.773 65.7C284.773 80.1 287.833 91.98 293.953 101.34C300.193 110.7 308.953 115.38 320.233 115.38ZM462.268 124.92C461.308 123.36 459.088 122.58 455.608 122.58H380.368L445.168 14.58H410.608C406.648 14.58 403.588 15 401.428 15.84C399.268 16.68 397.528 18.12 396.208 20.16C395.008 22.2 393.928 25.2 392.968 29.16L391.888 33.12L386.488 31.14V2.16001L388.828 7.39098e-06L391.888 2.16001C393.568 3.36001 395.848 4.26001 398.728 4.86001C401.728 5.34001 405.688 5.58001 410.608 5.58001H470.188L405.748 113.22H442.288C446.368 113.22 449.488 112.86 451.648 112.14C453.808 111.3 455.488 109.92 456.688 108C457.888 105.96 459.028 102.9 460.108 98.82L461.368 95.22L466.768 96.84V124.92L463.528 126.54L462.268 124.92Z" fill="black"/>
</svg>
